<svg xmlns="http://www.w3.org/2000/svg" width="24" height="24" viewBox="0 0 24 24" fill="none" stroke="#7c3aed" stroke-width="2" stroke-linecap="round" stroke-linejoin="round"><path d="M4.5 16.5c-1.5 1.26-2 5-2 5s3.74-.5 5-2c.71-.84.7-2.3.05-3.18-.65-.87-2.1-1.4-3.1-1.4-.7-.01-1.4.2-2 .5z"/><path d="m12 15-3-3a9 9 0 0 1 3-13h0a9 9 0 0 1 13 3l-3 3"/><path d="M19 6c.6.6.6 1.5 0 2.1l-3 3"/><path d="m22 16-3-3"/><path d="M9 12a3 3 0 0 0-3 3c0 .62.2 1.2.5 1.7"/><path d="M12 9a3 3 0 0 0 3-3c-.55-.28-1.13-.5-1.7-.5"/></svg>